PathFileType	4	(X/Y/Z)	\\147.46.242.158\로컬 디스크 (e)\MOCAP Data\Iguana Capture\iguana\Project 2\Capture day 7\Session 2\Take12.trc
DataRate	CameraRate	NumFrames	NumMarkers	Units	OrigDataRate	OrigDataStartFrame	OrigNumFrames
120.0	120.0	11	23	mm	120.0	178	16798
Frame#	Time	ana:head1			ana:head2			ana:bone1			ana:bone2			ana:bone3			ana:tail1			ana:tail2			ana:tail3			ana:tail4			ana:Rforefoot1			ana:Rforefoot2			ana:Rforefoot3			ana:Lforefoot1			ana:Lforefoot2			ana:Lforefoot3			ana:RhindLeg1			ana:RhindLeg2			ana:RhindLeg3			ana:RhindLeg4			ana:LhindLeg1			ana:LhindLeg2			ana:LhindLeg3			ana:LhindLeg4			
		X1	Y1	Z1	X2	Y2	Z2	X3	Y3	Z3	X4	Y4	Z4	X5	Y5	Z5	X6	Y6	Z6	X7	Y7	Z7	X8	Y8	Z8	X9	Y9	Z9	X10	Y10	Z10	X11	Y11	Z11	X12	Y12	Z12	X13	Y13	Z13	X14	Y14	Z14	X15	Y15	Z15	X16	Y16	Z16	X17	Y17	Z17	X18	Y18	Z18	X19	Y19	Z19	X20	Y20	Z20	X21	Y21	Z21	X22	Y22	Z22	X23	Y23	Z23	

2407	20.050	342.33453	176.78030	32.29899	332.00177	177.08058	35.90682	308.31772	173.69724	36.49052	283.58450	156.72478	35.42391	269.52411	129.13481	22.02338	263.53198	99.16474	13.23314	277.15860	63.91650	8.50321	294.98340	26.41603	6.64350	302.18796	-15.15633	5.71537	311.25870	162.54173	19.34617	300.87756	151.50124	13.38726	307.71225	160.37521	1.58263	307.32590	184.19238	25.48642	296.36871	188.26285	29.71465	300.10120	197.16905	13.74830	278.91141	126.18195	17.29185	297.34552	129.68837	21.12899	302.13864	119.13547	2.81058	308.04630	127.72028	4.60684	262.18207	133.59999	15.89943	253.63518	148.60574	20.44981	241.97873	146.41682	2.75180	242.49962	157.79492	3.78062	
2408	20.058	342.14069	176.17093	33.29095	331.74612	176.58812	36.69768	308.10706	173.47849	36.75733	283.42770	156.51791	35.53091	269.44434	129.10332	22.02294	263.36633	99.10785	13.19969	277.00635	63.87944	8.50340	294.98056	26.41558	6.64895	302.20239	-15.24557	5.67346	311.14920	162.37619	19.51516	300.83035	151.43492	13.31948	307.75327	160.41122	1.49218	307.24075	184.02087	25.69438	296.27652	188.03555	29.94773	300.10287	196.82899	13.93084	278.78525	126.06987	17.30069	297.20877	129.56142	21.06086	302.20572	118.84578	2.86509	308.13092	127.93112	4.38964	261.68063	133.67943	16.00133	253.58261	148.56995	20.46596	241.97052	146.41978	2.74246	242.48396	157.79422	3.80034	
2409	20.067	341.91611	175.55948	34.27276	331.47241	176.10272	37.49464	307.89221	173.21709	37.07414	283.26743	156.30954	35.65728	269.31564	129.02406	22.06352	263.18893	99.04281	13.18197	276.85245	63.84037	8.50854	294.97421	26.41527	6.64710	302.20657	-15.28242	5.63873	310.95020	162.23604	19.71573	300.78516	151.36737	13.25448	307.77884	160.49352	1.31854	307.13913	183.83075	25.92976	296.22394	187.83321	30.20362	300.10324	196.50076	14.18981	278.64832	125.96247	17.33842	297.04779	129.43748	21.02182	302.34302	118.59723	2.95581	308.40741	127.99880	4.32942	261.04407	133.47232	16.25141	253.51373	148.53290	20.48049	241.96454	146.42441	2.72893	242.46187	157.79318	3.82251	
2410	20.075	341.67892	174.96538	35.22485	331.20294	175.61667	38.30827	307.67383	172.90253	37.43664	283.05975	156.18179	35.77475	269.16846	128.88860	22.14242	262.99921	98.96761	13.18574	276.70761	63.79596	8.51763	294.96170	26.41359	6.65017	302.20520	-15.31842	5.61968	310.68576	162.12119	19.92533	300.74725	151.28577	13.19645	307.82498	160.50146	1.20545	307.01083	183.60005	26.18731	296.15857	187.62036	30.47655	300.11829	196.19853	14.52034	278.51730	125.86668	17.38004	296.89224	129.30316	20.99368	302.45685	118.45068	3.01191	308.78934	127.90884	4.35047	260.36551	133.05385	16.61295	253.42137	148.49821	20.49267	241.96210	146.43117	2.71613	242.43681	157.79041	3.84781	
2411	20.083	341.42105	174.37540	36.18889	330.93820	175.11565	39.14175	307.44257	172.53880	37.83002	282.84122	156.05467	35.89569	268.96527	128.72011	22.24668	262.80637	98.88097	13.19951	276.57217	63.74423	8.51717	294.94672	26.40981	6.65224	302.19202	-15.31108	5.62176	310.41736	162.00818	20.11757	300.70889	151.20590	13.14880	307.88010	160.45723	1.16852	306.90408	183.33763	26.51234	296.07870	187.40672	30.77760	300.16049	195.95090	14.90105	278.39178	125.79073	17.40330	296.76291	129.15115	20.97372	302.53256	118.44021	3.01262	309.24515	127.65856	4.42186	259.87210	132.62357	16.94343	253.31601	148.46376	20.50496	241.95326	146.44266	2.70294	242.42329	157.80009	3.87196	
2412	20.092	341.16571	173.81549	37.14049	330.69519	174.55336	40.01403	307.23193	172.17050	38.21980	282.60767	155.89401	36.03559	268.74042	128.56339	22.38650	262.61847	98.79303	13.21287	276.44803	63.69112	8.51752	294.93427	26.40117	6.65181	302.16287	-15.25821	5.63812	310.20398	161.82727	20.33449	300.68402	151.11757	13.11368	307.93253	160.35541	1.19774	306.82385	183.04749	26.88815	295.98672	187.14618	31.08399	300.23862	195.73573	15.30816	278.26303	125.72149	17.42653	296.65070	129.00412	20.97979	302.45090	118.54703	3.01909	309.68262	127.32420	4.54543	259.54657	132.37508	17.17476	253.20784	148.42781	20.51333	241.94206	146.45073	2.68708	242.43619	157.74210	3.88820	
2413	20.100	340.93036	173.27097	38.08269	330.44647	173.99014	40.87449	307.04974	171.80156	38.60251	282.36938	155.73904	36.16929	268.48410	128.40576	22.54695	262.43326	98.70655	13.22158	276.31415	63.63702	8.50811	294.91486	26.39574	6.65318	302.12512	-15.17288	5.66442	310.00784	161.65898	20.55052	300.66153	151.02942	13.08928	307.98291	160.25116	1.21946	306.81415	182.76292	27.36057	295.88290	186.86673	31.39151	300.36502	195.52187	15.72362	278.13614	125.66142	17.45006	296.56366	128.86137	21.01717	302.21661	118.67158	3.05321	310.02164	126.89044	4.63964	259.44122	132.38158	17.27157	253.09547	148.39360	20.52144	241.92570	146.45750	2.66675	242.45370	157.70583	3.90403	
2414	20.108	340.70084	172.71802	39.00154	330.24042	173.36345	41.76233	306.82358	171.48236	38.97677	282.13278	155.58368	36.30359	268.24213	128.25740	22.69391	262.25195	98.60698	13.23249	276.18622	63.57767	8.50356	294.89435	26.38164	6.65530	302.10425	-15.07215	5.70032	309.84976	161.42218	20.81640	300.71820	150.93039	13.07095	308.00717	160.19699	1.24100	306.80383	182.48857	27.85950	295.78979	186.57306	31.69467	300.54233	195.30545	16.14706	277.99976	125.63323	17.45158	296.49350	128.72810	21.09060	301.95795	118.82199	3.09745	310.23376	126.55233	4.72839	259.59933	132.57559	17.23063	252.97961	148.35304	20.53851	241.90419	146.46014	2.64510	242.47385	157.66888	3.92666	
2415	20.117	340.48309	172.14882	39.88671	330.05878	172.72771	42.61751	306.62045	171.15381	39.33989	281.89902	155.42142	36.44715	267.99966	128.12021	22.82203	262.07388	98.50940	13.23099	276.05945	63.50642	8.51281	294.86746	26.37390	6.64616	302.08893	-15.00069	5.71394	309.69144	161.18138	21.10400	300.70963	150.80954	12.97973	308.06625	160.18654	1.30078	306.78363	182.28041	28.38821	295.69699	186.29016	32.01746	300.72293	195.04210	16.53312	277.85461	125.57922	17.48933	296.41284	128.59225	21.18469	301.73099	118.86782	3.19087	310.30191	126.37749	4.78526	259.76758	132.83157	17.15883	252.86455	148.30791	20.56349	241.87990	146.45551	2.62580	242.47701	157.65251	3.94550	
2416	20.125	340.30386	171.50800	40.76084	329.89651	172.07788	43.45881	306.43500	170.81190	39.69701	281.65793	155.25745	36.58883	267.77768	127.98726	22.90970	261.88565	98.39409	13.24734	275.94266	63.43605	8.51481	294.83630	26.36292	6.63534	302.09976	-14.98093	5.71789	309.54019	160.93312	21.39813	300.66049	150.66530	12.83225	308.15842	160.20964	1.40887	306.72067	182.12514	28.89719	295.61176	186.00920	32.33201	300.88101	194.75887	16.91806	277.69879	125.49164	17.56676	296.31415	128.45099	21.26137	301.67807	118.80696	3.24996	310.33701	126.27753	4.80389	259.86063	132.98450	17.12048	252.75264	148.21327	20.63021	241.85280	146.44569	2.61417	242.46774	157.67563	3.96729	
2417	20.133	340.13272	170.79118	41.61316	329.69138	171.40591	44.21287	306.26157	170.45277	40.05397	281.40784	155.09908	36.71675	267.57825	127.87440	22.95350	261.69269	98.25992	13.29494	275.84024	63.36396	8.51593	294.80359	26.34248	6.62147	302.10489	-14.97805	5.70339	309.36441	160.67725	21.68847	300.53445	150.49657	12.61856	308.30707	160.24487	1.57850	306.60419	182.00807	29.36994	295.53326	185.72928	32.65009	301.02582	194.45906	17.31251	277.53214	125.36163	17.69016	296.21017	128.29039	21.34012	301.79550	118.66222	3.27000	310.39197	126.28130	4.79898	259.86786	133.02995	17.10838	252.66347	148.09337	20.70540	241.82735	146.43742	2.60589	242.43890	157.72316	3.98185	
